<svg width="557" height="410" fill="none" xmlns="http://www.w3.org/2000/svg"><path d="M6.915 120.696V0h71.407v18.024H28.305v33.634h45.192v17.38H28.305v51.658H6.915zM138.299 39.91v80.786h19.46V74.027c0-2.253.322-4.506.965-6.759.643-2.36 1.662-4.452 3.056-6.276 1.393-1.824 3.27-3.272 5.628-4.345 2.359-1.18 5.254-1.77 8.685-1.77 5.79 0 9.918 1.823 12.384 5.471 2.465 3.54 3.698 8.1 3.698 13.68v46.668h19.621V71.613c0-4.613-.536-8.958-1.608-13.035s-2.788-7.617-5.147-10.621c-2.358-3.112-5.468-5.526-9.327-7.242-3.753-1.824-8.363-2.736-13.831-2.736-6.433 0-11.687 1.395-15.761 4.184-3.967 2.79-6.916 5.633-8.845 8.53l-1.126-10.783h-17.852zm129.289 82.718c-9.756 0-17.208-2.575-22.354-7.725-5.147-5.257-7.72-12.606-7.72-22.047V56.164h-12.705V39.91h13.188l1.125-20.277h17.852V39.91h31.843v16.254h-31.843v35.404c0 4.614.858 8.208 2.573 10.783 1.716 2.574 4.664 3.862 8.846 3.862 2.144 0 3.859-.322 5.146-.966 1.287-.643 2.251-1.394 2.895-2.253.643-.858 1.072-1.663 1.286-2.414.215-.75.322-1.233.322-1.448h13.509v10.782c-1.501 3.004-4.128 5.901-7.88 8.69-3.645 2.683-9.006 4.024-16.083 4.024z" fill="#2B2D33"/><path fill-rule="evenodd" clip-rule="evenodd" d="M324.23 119.409c5.361 2.146 11.579 3.219 18.656 3.219 6.647 0 12.169-.751 16.565-2.253 4.503-1.502 8.095-3.112 10.775-4.828 2.68-1.824 4.557-3.487 5.629-4.989l1.769-2.253V97.684h-14.153l-.965 1.448c-.536.858-1.554 1.824-3.055 2.897-1.394 1.073-3.431 2.092-6.112 3.057-2.68.859-6.111 1.288-10.292 1.288-7.184 0-12.706-2.039-16.565-6.115-3.86-4.077-6.058-9.495-6.594-16.254h58.54l.322-2.736c.321-1.824.482-4.077.482-6.76 0-5.149-.75-9.977-2.251-14.483-1.394-4.506-3.646-8.368-6.755-11.587-3.109-3.218-7.076-5.74-11.901-7.563-4.718-1.931-10.4-2.897-17.047-2.897-6.541 0-12.384 1.127-17.53 3.38-5.147 2.253-9.435 5.31-12.866 9.173-3.431 3.755-6.058 8.207-7.881 13.357-1.822 5.15-2.734 10.62-2.734 16.414 0 6.116.858 11.802 2.573 17.059 1.823 5.149 4.504 9.602 8.042 13.357 3.645 3.648 8.095 6.544 13.348 8.69zm36.025-48.6h-39.724c1.072-4.936 3.163-8.959 6.272-12.07 3.217-3.111 8.042-4.667 14.475-4.667s11.204 1.663 14.313 4.989c3.109 3.218 4.664 7.134 4.664 11.748z" fill="#2B2D33"/><path d="M415.46 119.248c-5.146-2.253-9.435-5.257-12.866-9.012-3.43-3.862-6.004-8.368-7.719-13.518-1.716-5.15-2.573-10.621-2.573-16.415 0-5.793.911-11.265 2.734-16.414 1.93-5.257 4.664-9.763 8.202-13.518 3.538-3.863 7.88-6.92 13.027-9.173 5.253-2.253 11.096-3.38 17.529-3.38 6.541 0 11.848.858 15.922 2.575 4.182 1.717 7.452 3.648 9.81 5.794 2.359 2.038 3.967 3.915 4.825 5.632l1.287 2.575v10.621h-13.67l-.804-1.61c-.429-1.072-1.287-2.252-2.574-3.54-1.286-1.394-3.163-2.628-5.629-3.7-2.358-1.074-5.414-1.61-9.167-1.61-3.752 0-7.022.697-9.81 2.092a20.223 20.223 0 00-6.755 5.632c-1.822 2.253-3.162 4.99-4.02 8.208-.858 3.111-1.287 6.383-1.287 9.816 0 7.081 1.769 13.143 5.307 18.185 3.646 4.935 9.168 7.403 16.565 7.403 3.967 0 7.13-.536 9.489-1.609 2.466-1.073 4.342-2.253 5.629-3.541 1.287-1.394 2.144-2.628 2.573-3.701l.643-1.61h13.671v10.622l-1.448 2.575c-.858 1.716-2.466 3.648-4.825 5.793-2.358 2.039-5.628 3.916-9.81 5.633-4.181 1.716-9.489 2.575-15.922 2.575-6.969 0-13.08-1.127-18.334-3.38zM502.963 0h-19.46v120.696h19.46V74.027c0-2.253.322-4.506.965-6.759.643-2.36 1.662-4.452 3.056-6.276 1.393-1.824 3.27-3.272 5.628-4.345 2.359-1.18 5.254-1.77 8.685-1.77 5.79 0 9.917 1.823 12.383 5.471 2.466 3.54 3.699 8.1 3.699 13.68v46.668H557V71.613c0-4.613-.536-8.958-1.608-13.035s-2.788-7.617-5.147-10.621c-2.358-3.112-5.468-5.526-9.327-7.242-3.753-1.824-8.363-2.736-13.831-2.736-6.112 0-11.151 1.341-15.118 4.023-3.967 2.575-6.969 5.204-9.006 7.886V0z" fill="#2B2D33"/><path fill-rule="evenodd" clip-rule="evenodd" d="M6.915 264.383V143.686h39.563c9.328 0 17.691 1.61 25.089 4.828 7.505 3.111 13.885 7.349 19.138 12.713 5.254 5.365 9.274 11.748 12.062 19.151 2.788 7.295 4.181 15.02 4.181 23.174 0 8.368-1.393 16.253-4.181 23.656-2.788 7.403-6.808 13.84-12.062 19.312-5.254 5.471-11.633 9.816-19.138 13.035-7.398 3.218-15.76 4.828-25.089 4.828H6.915zm21.39-18.024h17.69c6.005 0 11.42-1.127 16.244-3.38 4.932-2.253 9.06-5.31 12.384-9.173 3.43-3.862 6.057-8.368 7.88-13.518 1.823-5.257 2.734-10.836 2.734-16.736 0-5.686-.911-11.051-2.734-16.093-1.823-5.15-4.45-9.602-7.88-13.357-3.324-3.863-7.452-6.867-12.384-9.012-4.825-2.253-10.239-3.38-16.243-3.38h-17.69v84.649zm116.254 16.736c5.361 2.146 11.579 3.219 18.655 3.219 6.648 0 12.17-.751 16.565-2.253 4.503-1.502 8.095-3.111 10.776-4.828 2.68-1.824 4.556-3.487 5.629-4.989l1.769-2.253V241.37H183.8l-.965 1.448c-.536.859-1.555 1.824-3.056 2.897-1.393 1.073-3.431 2.092-6.111 3.058-2.68.858-6.111 1.287-10.293 1.287-7.183 0-12.705-2.038-16.565-6.115-3.859-4.077-6.057-9.495-6.593-16.254h58.54l.321-2.736c.322-1.824.483-4.077.483-6.759 0-5.15-.751-9.977-2.252-14.483-1.394-4.506-3.645-8.369-6.754-11.587-3.11-3.219-7.077-5.74-11.901-7.564-4.718-1.931-10.4-2.897-17.048-2.897-6.54 0-12.383 1.127-17.53 3.38-5.146 2.253-9.435 5.31-12.866 9.173-3.431 3.755-6.057 8.207-7.88 13.357-1.823 5.15-2.734 10.621-2.734 16.415 0 6.115.858 11.801 2.573 17.058 1.823 5.15 4.503 9.602 8.041 13.357 3.646 3.648 8.095 6.544 13.349 8.69zm36.025-48.6H140.86c1.072-4.935 3.163-8.959 6.272-12.07 3.216-3.111 8.041-4.667 14.474-4.667s11.204 1.663 14.314 4.989c3.109 3.219 4.664 7.135 4.664 11.748z" fill="#2B2D33"/><path d="M246.564 266.314c-6.004 0-11.097-.644-15.278-1.931-4.181-1.395-7.612-2.951-10.293-4.667-2.573-1.717-4.503-3.38-5.789-4.989-1.287-1.717-2.038-2.843-2.252-3.38v-10.621h13.831c0 .215.375.912 1.126 2.092.75 1.073 1.93 2.2 3.538 3.38 1.608 1.18 3.645 2.253 6.111 3.218 2.466.966 5.468 1.449 9.006 1.449 5.254 0 8.899-.805 10.936-2.414 2.145-1.61 3.217-3.755 3.217-6.437 0-3.326-1.501-5.579-4.503-6.759-2.895-1.288-6.487-2.361-10.775-3.219l-9.328-1.77c-6.112-1.073-11.258-3.38-15.439-6.92-4.182-3.648-6.273-9.119-6.273-16.415 0-6.866 2.627-12.767 7.881-17.702 5.361-5.042 12.919-7.564 22.676-7.564 8.899 0 15.654 1.449 20.264 4.345 4.61 2.897 7.773 6.116 9.489 9.656v10.621h-13.67c0-.214-.322-.804-.965-1.77-.536-1.073-1.448-2.145-2.734-3.218-1.18-1.073-2.842-2.039-4.986-2.897-2.037-.966-4.557-1.448-7.559-1.448-4.503 0-7.719.858-9.649 2.574-1.823 1.717-2.734 3.863-2.734 6.438 0 2.574 1.072 4.613 3.216 6.115 2.252 1.395 5.2 2.467 8.846 3.218l9.327 1.771a64.614 64.614 0 019.489 2.575c3.002.965 5.629 2.36 7.881 4.184 2.251 1.716 4.02 3.916 5.307 6.598 1.394 2.682 2.09 5.9 2.09 9.655 0 7.403-2.734 13.626-8.202 18.668-5.468 5.043-13.402 7.564-23.802 7.564zm192.967-1.931v-80.786h17.852l1.126 10.782c1.93-2.897 4.878-5.74 8.845-8.529 4.074-2.79 9.328-4.185 15.761-4.185 5.468 0 10.078.912 13.831 2.736 3.86 1.717 6.969 4.131 9.328 7.242 2.358 3.004 4.074 6.544 5.146 10.621 1.072 4.077 1.608 8.422 1.608 13.035v49.084h-19.62v-46.67c0-5.578-1.233-10.138-3.699-13.679-2.466-3.647-6.594-5.471-12.384-5.471-3.431 0-6.326.59-8.684 1.77-2.359 1.073-4.235 2.521-5.629 4.345-1.394 1.824-2.413 3.916-3.056 6.276a24.528 24.528 0 00-.965 6.759v46.67h-19.46zM33.934 405.172c7.398 3.219 15.868 4.828 25.41 4.828 8.042 0 14.903-.966 20.586-2.897 5.682-2.038 10.293-4.345 13.83-6.92 3.646-2.575 6.327-5.096 8.042-7.563 1.823-2.468 2.895-4.238 3.217-5.311v-11.587H88.614c-.107.429-.697 1.556-1.769 3.38-.965 1.716-2.573 3.54-4.824 5.471-2.252 1.931-5.2 3.648-8.846 5.15-3.645 1.502-8.148 2.253-13.509 2.253-5.897 0-11.258-1.126-16.082-3.379-4.718-2.253-8.685-5.365-11.902-9.334-3.216-3.97-5.736-8.69-7.558-14.162-1.716-5.472-2.573-11.372-2.573-17.702 0-6.437.857-12.338 2.573-17.702 1.822-5.472 4.342-10.139 7.559-14.001 3.323-3.862 7.344-6.866 12.061-9.012 4.718-2.253 10.025-3.38 15.922-3.38 5.468 0 9.971.751 13.51 2.253 3.645 1.395 6.54 3.004 8.684 4.828 2.144 1.824 3.645 3.594 4.503 5.311.858 1.716 1.34 2.789 1.447 3.218h16.404v-11.586c-.214-.859-1.125-2.468-2.734-4.828-1.5-2.361-3.967-4.774-7.398-7.242-3.43-2.575-7.987-4.828-13.67-6.759-5.682-2.038-12.705-3.058-21.068-3.058-8.899 0-17.047 1.556-24.445 4.667-7.29 3.112-13.51 7.403-18.656 12.875-5.146 5.471-9.167 12.016-12.062 19.633C1.394 330.233 0 338.494 0 347.399c0 8.797 1.287 17.058 3.86 24.783 2.68 7.617 6.486 14.215 11.418 19.794 5.04 5.579 11.258 9.978 18.656 13.196z" fill="#2B2D33"/><path fill-rule="evenodd" clip-rule="evenodd" d="M158.798 410c-6.54 0-12.437-1.126-17.691-3.379-5.146-2.253-9.542-5.257-13.187-9.012-3.538-3.863-6.272-8.369-8.202-13.518-1.823-5.257-2.734-10.783-2.734-16.576 0-5.794.911-11.265 2.734-16.415 1.93-5.15 4.664-9.602 8.202-13.357 3.645-3.862 8.041-6.866 13.187-9.012 5.254-2.253 11.151-3.379 17.691-3.379 6.433 0 12.223 1.126 17.369 3.379 5.254 2.146 9.65 5.15 13.188 9.012 3.538 3.755 6.272 8.207 8.202 13.357 1.93 5.15 2.895 10.621 2.895 16.415 0 5.793-.965 11.319-2.895 16.576-1.93 5.149-4.664 9.655-8.202 13.518-3.538 3.755-7.934 6.759-13.188 9.012-5.146 2.253-10.936 3.379-17.369 3.379zm0-16.737c7.505 0 13.027-2.521 16.565-7.563 3.645-5.043 5.468-11.104 5.468-18.185 0-6.866-1.823-12.821-5.468-17.863-3.538-5.043-9.06-7.564-16.565-7.564-7.505 0-13.08 2.521-16.726 7.564-3.645 5.042-5.468 10.997-5.468 17.863 0 7.081 1.823 13.142 5.468 18.185 3.646 5.042 9.221 7.563 16.726 7.563z" fill="#2B2D33"/><path d="M218.083 327.283v80.786h19.46V361.4c0-2.253.322-4.506.965-6.759.643-2.361 1.662-4.453 3.056-6.277 1.394-1.823 3.27-3.272 5.629-4.345 2.358-1.18 5.253-1.77 8.684-1.77 5.79 0 9.918 1.824 12.384 5.472 2.466 3.54 3.699 8.1 3.699 13.679v46.669h19.62v-49.083c0-4.614-.536-8.959-1.608-13.036-1.072-4.076-2.788-7.617-5.146-10.621-2.359-3.111-5.468-5.525-9.328-7.242-3.753-1.823-8.363-2.735-13.831-2.735-6.433 0-11.687 1.394-15.761 4.184-3.967 2.789-6.915 5.632-8.845 8.529l-1.126-10.782h-17.852z" fill="#2B2D33"/><path fill-rule="evenodd" clip-rule="evenodd" d="M357.094 302.832c4.308 2.715 10.156 4.152 17.232 4.152 13.403 0 22.916-5.448 30.743-13.817 7.934-8.368 11.901-19.579 11.901-33.634v-76.441h-18.013l-1.447 11.909c-2.895-4.292-6.648-7.671-11.258-10.139-4.611-2.575-9.972-3.862-16.083-3.862-5.683 0-10.83 1.126-15.44 3.379-4.61 2.253-8.524 5.311-11.741 9.173-3.216 3.755-5.682 8.208-7.398 13.358-1.715 5.149-2.573 10.621-2.573 16.414 0 5.686.858 11.104 2.573 16.254 1.716 5.042 4.128 9.495 7.238 13.357 3.216 3.755 7.13 6.759 11.74 9.012 4.611 2.146 9.757 3.219 15.44 3.219 6.004 0 11.311-1.18 15.922-3.541 4.718-2.467 8.524-5.793 11.419-9.977v8.207c0 8.69-2.037 15.61-6.112 20.76-4.074 5.149-10.186 10.598-18.334 10.598-3.779 0-7.24-1.374-10.615-2.931-2.788-1.287-3.786-1.782-6.523-3.286-2.737-1.505-4.764-3.439-11.158-3.439-6.395 0-12.588 3.51-17.734 8.874-5.147 5.365-7.72 12.714-7.72 22.048v14.299H305v16.254h14.153v64.532h19.621v-64.532h25.894v-16.254h-25.894v-14.621c0-4.292.804-7.457 2.413-9.495 1.608-2.146 4.074-3.06 7.398-3.06s4.201.516 8.509 3.23zm17.899-54.403c6.755 0 12.17-2.468 16.244-7.403 4.075-4.935 6.112-10.889 6.112-17.863 0-6.866-2.037-12.767-6.112-17.702-4.074-4.935-9.489-7.403-16.244-7.403-7.398 0-13.027 2.468-16.887 7.403-3.752 4.935-5.629 10.836-5.629 17.702 0 6.974 1.877 12.928 5.629 17.863 3.86 4.935 9.489 7.403 16.887 7.403z" fill="#2B2D33"/><path d="M95.722 23.174V3.379h20.747v19.795H95.722zm.643 97.522V39.91h19.46v80.786h-19.46zm198.716 46.164v-19.794h20.747v19.794h-20.747zm.644 97.523v-80.786h19.459v80.786h-19.459z" fill="#2B2D33"/></svg>