<svg width="0" height="0" fill="#000000" xmlns="http://www.w3.org/2000/svg">
    <symbol viewBox="0 0 22 8" id="arrow">
        <path d="M1 3.5C0.723858 3.5 0.5 3.72386 0.5 4C0.5 4.27614 0.723858 4.5 1 4.5L1 3.5ZM21.3536 4.35355C21.5488 4.15829 21.5488 3.84171 21.3536 3.64644L18.1716 0.464465C17.9763 0.269202 17.6597 0.269202 17.4645 0.464465C17.2692 0.659727 17.2692 0.976309 17.4645 1.17157L20.2929 4L17.4645 6.82843C17.2692 7.02369 17.2692 7.34027 17.4645 7.53553C17.6597 7.73079 17.9763 7.73079 18.1716 7.53553L21.3536 4.35355ZM1 4.5L21 4.5L21 3.5L1 3.5L1 4.5Z"/>
    </symbol>
    <symbol viewBox="0 0 135 90" id="points">
        <circle cx="130" cy="85" r="5" fill="#3EB2FF" fill-opacity="0.2"/>
        <circle cx="105" cy="85" r="5" fill="#3EB2FF" fill-opacity="0.2"/>
        <circle cx="80" cy="85" r="5" fill="#3EB2FF" fill-opacity="0.2"/>
        <circle cx="55" cy="85" r="5" fill="#3EB2FF" fill-opacity="0.2"/>
        <circle cx="30" cy="85" r="5" fill="#3EB2FF" fill-opacity="0.2"/>
        <circle cx="5" cy="85" r="5" fill="#3EB2FF" fill-opacity="0.2"/>
        <circle cx="130" cy="65" r="5" fill="#3EB2FF" fill-opacity="0.2"/>
        <circle cx="105" cy="65" r="5" fill="#3EB2FF" fill-opacity="0.2"/>
        <circle cx="80" cy="65" r="5" fill="#3EB2FF" fill-opacity="0.2"/>
        <circle cx="55" cy="65" r="5" fill="#3EB2FF" fill-opacity="0.2"/>
        <circle cx="30" cy="65" r="5" fill="#3EB2FF" fill-opacity="0.2"/>
        <circle cx="5" cy="65" r="5" fill="#3EB2FF" fill-opacity="0.2"/>
        <circle cx="130" cy="45" r="5" fill="#3EB2FF" fill-opacity="0.2"/>
        <circle cx="105" cy="45" r="5" fill="#3EB2FF" fill-opacity="0.2"/>
        <circle cx="80" cy="45" r="5" fill="#3EB2FF" fill-opacity="0.2"/>
        <circle cx="55" cy="45" r="5" fill="#3EB2FF" fill-opacity="0.2"/>
        <circle cx="30" cy="45" r="5" fill="#3EB2FF" fill-opacity="0.2"/>
        <circle cx="5" cy="45" r="5" fill="#3EB2FF" fill-opacity="0.2"/>
        <circle cx="130" cy="25" r="5" fill="#3EB2FF" fill-opacity="0.2"/>
        <circle cx="105" cy="25" r="5" fill="#3EB2FF" fill-opacity="0.2"/>
        <circle cx="80" cy="25" r="5" fill="#3EB2FF" fill-opacity="0.2"/>
        <circle cx="55" cy="25" r="5" fill="#3EB2FF" fill-opacity="0.2"/>
        <circle cx="30" cy="25" r="5" fill="#3EB2FF" fill-opacity="0.2"/>
        <circle cx="5" cy="25" r="5" fill="#3EB2FF" fill-opacity="0.2"/>
        <circle cx="130" cy="5" r="5" fill="#3EB2FF" fill-opacity="0.2"/>
        <circle cx="105" cy="5" r="5" fill="#3EB2FF" fill-opacity="0.2"/>
        <circle cx="80" cy="5" r="5" fill="#3EB2FF" fill-opacity="0.2"/>
        <circle cx="55" cy="5" r="5" fill="#3EB2FF" fill-opacity="0.2"/>
        <circle cx="30" cy="5" r="5" fill="#3EB2FF" fill-opacity="0.2"/>
        <circle cx="5" cy="5" r="5" fill="#3EB2FF" fill-opacity="0.2"/>
    </symbol>
    <symbol viewBox="0 0 42 36" id="ball" fill-opacity="0">
        <path d="M15 4.6665C15 4.6665 20.6667 10.6665 23.3333 17.3332C25.4451 22.6126 27 31.3332 27 31.3332" stroke="#0060A0" stroke-width="2"/>
        <path d="M11 28.3335C11 28.3335 16 20.3453 22.6667 18.6668C27.9461 17.3377 35.6667 18.6668 35.6667 18.6668" stroke="#0060A0" stroke-width="2"/>
        <path d="M31 7.6665C31 7.6665 28 11.9998 21.3333 14.6665C16.0539 16.7783 6.33333 15.9998 6.33333 15.9998" stroke="#0060A0" stroke-width="2"/>
        <circle cx="21" cy="18" r="14" stroke="#0060A0" stroke-width="2"/>
    </symbol>
    <symbol viewBox="0 0 42 36" id="doctor">
        <path d="M7.00033 33.0172C7.00991 33.5694 7.46532 34.0092 8.01752 33.9997C8.56972 33.9901 9.00961 33.5347 9.00003 32.9825L7.00033 33.0172ZM32.2387 32.9728C32.2238 33.5249 32.6593 33.9846 33.2113 33.9995C33.7634 34.0144 34.2231 33.5789 34.2379 33.0268L32.2387 32.9728ZM8.00018 32.9998C9.00003 32.9825 9.00004 32.983 9.00005 32.9834C9.00005 32.9835 9.00006 32.9839 9.00006 32.9841C9.00007 32.9845 9.00007 32.9847 9.00007 32.9847C9.00007 32.9848 9.00006 32.9842 9.00005 32.9829C9.00003 32.9803 9 32.975 9 32.9671C9.00001 32.9512 9.00017 32.925 9.00087 32.889C9.00229 32.8171 9.00588 32.7064 9.01477 32.5627C9.03259 32.2747 9.07155 31.8561 9.15618 31.3508C9.32619 30.3357 9.67631 28.9962 10.39 27.6675C11.1004 26.3449 12.1676 25.0381 13.7817 24.0576C15.3946 23.0778 17.611 22.3887 20.6752 22.3887L20.6752 20.3887C17.3013 20.3887 14.7142 21.151 12.7433 22.3483C10.7737 23.5448 9.47692 25.1408 8.62811 26.7211C7.78261 28.2951 7.37829 29.8584 7.18366 31.0204C7.08597 31.6036 7.04006 32.0921 7.01859 32.4391C7.00784 32.6129 7.00319 32.7517 7.00126 32.8498C7.0003 32.8989 7.00002 32.9378 7 32.966C6.99999 32.98 7.00005 32.9914 7.00012 32.9999C7.00016 33.0042 7.0002 33.0078 7.00024 33.0107C7.00026 33.0121 7.00027 33.0134 7.00029 33.0145C7.0003 33.015 7.00031 33.0157 7.00031 33.0159C7.00032 33.0166 7.00033 33.0172 8.00018 32.9998ZM20.6752 22.3887C23.7396 22.3887 25.9479 23.0778 27.549 24.0562C29.1512 25.0352 30.2041 26.3399 30.9009 27.6608C31.6011 28.9881 31.9381 30.3267 32.0983 31.3415C32.178 31.8466 32.2129 32.2652 32.228 32.5531C32.2355 32.6968 32.238 32.8075 32.2387 32.8794C32.2391 32.9154 32.239 32.9416 32.2389 32.9574C32.2388 32.9653 32.2387 32.9706 32.2387 32.9732C32.2386 32.9745 32.2386 32.9752 32.2386 32.9751C32.2386 32.9751 32.2386 32.9749 32.2386 32.9745C32.2386 32.9743 32.2386 32.9739 32.2386 32.9738C32.2387 32.9733 32.2387 32.9728 33.2383 32.9998C34.2379 33.0268 34.238 33.0262 34.238 33.0256C34.238 33.0253 34.238 33.0246 34.238 33.0241C34.238 33.023 34.2381 33.0218 34.2381 33.0203C34.2382 33.0174 34.2382 33.0139 34.2383 33.0096C34.2385 33.001 34.2386 32.9897 34.2388 32.9756C34.239 32.9475 34.2391 32.9085 34.2386 32.8594C34.2377 32.7613 34.2343 32.6225 34.2253 32.4487C34.2071 32.1017 34.1659 31.6131 34.0738 31.0297C33.8904 29.8674 33.501 28.3032 32.6699 26.7277C31.8355 25.1458 30.5524 23.5477 28.5919 22.3496C26.6302 21.1509 24.049 20.3887 20.6752 20.3887L20.6752 22.3887Z" fill="#0060A0"/>
        <path d="M12.4451 30.6957L11.4455 30.6675L12.4451 30.6957ZM14.2256 35L13.4368 35.6147C13.7364 35.9991 14.2695 36.1116 14.6988 35.8809L14.2256 35ZM18.2315 27.3478L17.7179 28.2058L17.7179 28.2058L18.2315 27.3478ZM20.9022 31.1739L21.3755 32.0548C21.8017 31.8259 22.0028 31.3246 21.8532 30.8646L20.9022 31.1739ZM15.589 35.4027C16.0756 35.1413 16.2581 34.535 15.9967 34.0485C15.7353 33.562 15.129 33.3794 14.6425 33.6408L15.589 35.4027ZM19.5387 30.7713C19.0522 31.0326 18.8697 31.6389 19.1311 32.1254C19.3924 32.612 19.9987 32.7945 20.4852 32.5331L19.5387 30.7713ZM11.2098 24.6129L13.4354 27.4824L15.0157 26.2567L12.7902 23.3871L11.2098 24.6129ZM14.2256 26.8696C13.4606 26.2254 13.4605 26.2256 13.4604 26.2258C13.4603 26.2258 13.4601 26.226 13.46 26.2261C13.4598 26.2264 13.4596 26.2267 13.4593 26.2271C13.4587 26.2277 13.4581 26.2285 13.4573 26.2294C13.4558 26.2313 13.4538 26.2336 13.4515 26.2364C13.4467 26.2421 13.4404 26.2497 13.4326 26.2593C13.4169 26.2784 13.3952 26.3052 13.3683 26.3391C13.3145 26.4068 13.2396 26.5032 13.1505 26.6236C12.973 26.8634 12.7356 27.2035 12.4954 27.6059C12.0366 28.3745 11.478 29.5153 11.4455 30.6675L13.4447 30.7238C13.4622 30.1049 13.7938 29.3327 14.2127 28.631C14.4113 28.2983 14.6097 28.0139 14.7583 27.8131C14.8322 27.7132 14.8929 27.6352 14.9339 27.5836C14.9544 27.5578 14.9699 27.5387 14.9796 27.5269C14.9845 27.5209 14.9879 27.5168 14.9897 27.5146C14.9906 27.5135 14.9912 27.5129 14.9913 27.5127C14.9914 27.5126 14.9913 27.5127 14.9912 27.5128C14.9911 27.5129 14.991 27.513 14.9909 27.5132C14.9908 27.5132 14.9907 27.5134 14.9907 27.5134C14.9906 27.5135 14.9905 27.5137 14.2256 26.8696ZM11.4455 30.6675C11.4102 31.9177 11.9655 33.1895 12.4359 34.0559C12.6817 34.5085 12.9281 34.893 13.1132 35.1646C13.2061 35.301 13.2845 35.4102 13.3407 35.4868C13.3689 35.5252 13.3916 35.5554 13.4079 35.5769C13.416 35.5877 13.4226 35.5963 13.4274 35.6026C13.4299 35.6058 13.4319 35.6083 13.4334 35.6104C13.4342 35.6114 13.4349 35.6122 13.4354 35.613C13.4357 35.6133 13.436 35.6136 13.4362 35.6139C13.4363 35.6141 13.4364 35.6143 13.4365 35.6143C13.4366 35.6145 13.4368 35.6147 14.2256 35C15.0143 34.3853 15.0144 34.3855 15.0146 34.3856C15.0146 34.3857 15.0147 34.3858 15.0147 34.3859C15.0149 34.386 15.0149 34.3861 15.015 34.3862C15.0151 34.3863 15.0151 34.3863 15.015 34.3862C15.0148 34.3859 15.0142 34.3851 15.0131 34.3838C15.011 34.3811 15.0073 34.3762 15.002 34.3692C14.9915 34.3553 14.9748 34.333 14.9529 34.3032C14.909 34.2434 14.8443 34.1534 14.766 34.0384C14.6087 33.8076 14.3998 33.4814 14.1935 33.1016C13.76 32.3031 13.425 31.4226 13.4447 30.7238L11.4455 30.6675ZM14.2256 26.8696C14.3555 27.8611 14.3553 27.8611 14.3552 27.8611C14.3551 27.8611 14.355 27.8612 14.3549 27.8612C14.3547 27.8612 14.3546 27.8612 14.3545 27.8612C14.3544 27.8612 14.3544 27.8612 14.3545 27.8612C14.3548 27.8612 14.3557 27.8611 14.3572 27.8609C14.3601 27.8605 14.3655 27.8598 14.3732 27.8589C14.3885 27.8571 14.413 27.8543 14.4455 27.8509C14.5108 27.8441 14.6082 27.8348 14.7305 27.8259C14.9763 27.8081 15.3163 27.7923 15.6928 27.7998C16.4978 27.816 17.27 27.9377 17.7179 28.2058L18.7452 26.4898C17.8181 25.9348 16.5873 25.8174 15.733 25.8002C15.2799 25.7911 14.8762 25.8101 14.5857 25.8312C14.4399 25.8418 14.3211 25.853 14.237 25.8618C14.195 25.8662 14.1615 25.87 14.1377 25.8729C14.1257 25.8743 14.1162 25.8754 14.1091 25.8763C14.1056 25.8768 14.1027 25.8771 14.1004 25.8774C14.0993 25.8776 14.0983 25.8777 14.0975 25.8778C14.0971 25.8778 14.0968 25.8779 14.0964 25.8779C14.0963 25.878 14.0961 25.878 14.096 25.878C14.0958 25.878 14.0956 25.878 14.2256 26.8696ZM17.7179 28.2058C18.3691 28.5956 18.9311 29.3582 19.3516 30.1346C19.5533 30.5069 19.7058 30.851 19.8074 31.1014C19.858 31.226 19.8954 31.3259 19.9195 31.3927C19.9316 31.426 19.9402 31.4509 19.9455 31.4664C19.9482 31.4742 19.95 31.4795 19.9509 31.4824C19.9514 31.4838 19.9517 31.4846 19.9517 31.4847C19.9518 31.4848 19.9517 31.4847 19.9517 31.4845C19.9516 31.4844 19.9516 31.4842 19.9515 31.484C19.9515 31.4839 19.9514 31.4837 19.9514 31.4837C19.9513 31.4835 19.9512 31.4833 20.9022 31.1739C21.8532 30.8646 21.8531 30.8643 21.853 30.8641C21.853 30.864 21.8529 30.8638 21.8528 30.8636C21.8527 30.8632 21.8526 30.8628 21.8524 30.8623C21.8521 30.8614 21.8518 30.8603 21.8513 30.8591C21.8505 30.8565 21.8495 30.8534 21.8482 30.8495C21.8456 30.8418 21.8422 30.8315 21.8378 30.8188C21.829 30.7932 21.8166 30.7577 21.8006 30.7133C21.7686 30.6247 21.7219 30.5002 21.6605 30.3489C21.5381 30.0475 21.3549 29.6339 21.1103 29.1821C20.6382 28.3106 19.8649 27.1601 18.7452 26.4898L17.7179 28.2058ZM14.6988 35.8809L15.589 35.4027L14.6425 33.6408L13.7523 34.1191L14.6988 35.8809ZM20.4289 30.293L19.5387 30.7713L20.4852 32.5331L21.3755 32.0548L20.4289 30.293ZM29.1744 23.7704L27.6395 26.3596L29.36 27.3795L30.8948 24.7903L29.1744 23.7704Z" fill="#0060A0"/>
        <circle cx="28" cy="28" r="1" stroke="#0060A0" stroke-width="2"/>
        <path d="M28.9737 9.23997C28.9737 13.7849 25.2644 17.4799 20.6755 17.4799C16.0865 17.4799 12.3772 13.7849 12.3772 9.23997C12.3772 4.69508 16.0865 1 20.6755 1C25.2644 1 28.9737 4.69508 28.9737 9.23997Z" stroke="#0060A0" stroke-width="2" fill-opacity="0"/>
    </symbol>
    <symbol viewBox="0 0 42 36" id="document" fill-opacity="0">
        <path d="M21.4286 8.1358H29.1429M21.4286 11.0741H29.1429M21.4286 14.4321H29.1429M12.8571 19.0494H16.7143M18.8571 19.0494H29.1429M12.8571 23.2469H22.2857M25.7143 23.2469H29.1429M29.1429 27.8642H12.8571M6 1V35H36V1H6ZM12.8571 8.1358V15.6914H18.4286V8.1358H12.8571Z" stroke="#0060A0" stroke-width="2" stroke-linecap="round" stroke-linejoin="round"/>
    </symbol>
    <symbol viewBox="0 0 42 36" id="pen" fill-opacity="0">
        <path d="M7.15454 31.423C7.15454 31.423 14.8329 29.4037 19.8551 29.4038C21.0097 29.4038 18.4119 32 20.4324 32C24.4353 32 30.5351 30.2692 30.5351 30.2692" stroke="#0060A0" stroke-width="2" stroke-linecap="round"/>
        <path d="M17.3337 18.2128L34.835 4.21253C34.7866 4.6806 34.7246 5.20068 34.6456 5.75207C34.3581 7.75657 33.8579 10.0723 33.0192 11.8199L27.1516 12.9692C26.7735 13.0432 26.4716 13.3279 26.3755 13.7011C26.2793 14.0742 26.4062 14.4694 26.7014 14.7169L27.3438 13.9505C26.7014 14.7169 26.7017 14.7171 26.702 14.7173L26.7026 14.7178L26.7039 14.7189L26.7069 14.7215L26.7148 14.7279L26.7376 14.7463C26.7558 14.761 26.7803 14.7802 26.8109 14.8034C26.8718 14.8497 26.9571 14.9119 27.0649 14.9846C27.2801 15.1298 27.5881 15.3187 27.9753 15.5066C28.7014 15.8589 29.7302 16.2189 30.9597 16.2595C30.684 16.7827 30.3327 17.4038 29.9075 18.069C28.7629 19.8596 27.1279 21.8988 25.0484 23.25C24.9893 23.2367 24.9244 23.2221 24.8543 23.2061C24.4884 23.1229 23.9827 23.0051 23.4234 22.8669C22.2882 22.5864 20.9889 22.2352 20.1742 21.9254C19.84 21.7984 19.4634 21.8594 19.1865 22.0855C18.9095 22.3115 18.7743 22.6683 18.8319 23.0212L19.8188 22.8602C18.8319 23.0212 18.8319 23.0217 18.832 23.0222L18.8322 23.0232L18.8326 23.0255L18.8334 23.0306L18.8356 23.0431C18.8373 23.0524 18.8394 23.0637 18.842 23.0769C18.8472 23.1032 18.8544 23.1371 18.864 23.1779C18.8832 23.2592 18.9122 23.3682 18.9546 23.4988C19.0392 23.7592 19.1787 24.1094 19.4037 24.4971C19.6249 24.8785 19.9278 25.2939 20.3377 25.6933C19.9267 25.7753 19.4264 25.8333 18.8324 25.8333C17.5722 25.8333 15.869 25.5723 13.6834 24.7006C13.4963 24.626 13.2943 24.6107 13.1031 24.6517C13.1822 24.548 13.2406 24.4294 13.2744 24.3023C13.8964 21.9638 15.3059 19.835 17.3337 18.2128L16.7784 17.5187L17.3337 18.2128Z" stroke="#0060A0" stroke-width="2" stroke-linejoin="round"/>
    </symbol>
    <symbol viewBox="0 0 42 36" id="plus">
        <path d="M35.2736 11.9592L35.2736 23.3596" stroke="#0060A0" stroke-width="2" stroke-linecap="round"/>
        <path d="M40.4362 17.6592L30.1111 17.6592" stroke="#0060A0" stroke-width="2" stroke-linecap="round"/>
        <path d="M1.00033 34.0172C1.00991 34.5694 1.46532 35.0092 2.01752 34.9997C2.56972 34.9901 3.00961 34.5347 3.00003 33.9825L1.00033 34.0172ZM26.2387 33.9728C26.2238 34.5249 26.6593 34.9846 27.2113 34.9995C27.7634 35.0144 28.2231 34.5789 28.2379 34.0268L26.2387 33.9728ZM2.00018 33.9998C3.00003 33.9825 3.00004 33.983 3.00005 33.9834C3.00005 33.9835 3.00006 33.9839 3.00006 33.9841C3.00007 33.9845 3.00007 33.9847 3.00007 33.9847C3.00007 33.9848 3.00006 33.9842 3.00005 33.9829C3.00003 33.9803 3 33.975 3 33.9671C3.00001 33.9512 3.00017 33.925 3.00087 33.889C3.00229 33.8171 3.00588 33.7064 3.01477 33.5627C3.03259 33.2747 3.07155 32.8561 3.15618 32.3508C3.32619 31.3357 3.67631 29.9962 4.39002 28.6675C5.10043 27.3449 6.16762 26.0381 7.78173 25.0576C9.39459 24.0778 11.611 23.3887 14.6752 23.3887L14.6752 21.3887C11.3013 21.3887 8.7142 22.151 6.74333 23.3483C4.77372 24.5448 3.47692 26.1408 2.62811 27.7211C1.78261 29.2951 1.37829 30.8584 1.18366 32.0204C1.08597 32.6036 1.04006 33.0921 1.01859 33.4391C1.00784 33.6129 1.00319 33.7517 1.00126 33.8498C1.0003 33.8989 1.00002 33.9378 1 33.966C0.999992 33.98 1.00005 33.9914 1.00012 33.9999C1.00016 34.0042 1.0002 34.0078 1.00024 34.0107C1.00026 34.0121 1.00027 34.0134 1.00029 34.0145C1.0003 34.015 1.00031 34.0157 1.00031 34.0159C1.00032 34.0166 1.00033 34.0172 2.00018 33.9998ZM14.6752 23.3887C17.7396 23.3887 19.9479 24.0778 21.549 25.0562C23.1512 26.0352 24.2041 27.3399 24.9009 28.6608C25.6011 29.9881 25.9381 31.3267 26.0983 32.3415C26.178 32.8466 26.2129 33.2652 26.228 33.5531C26.2355 33.6968 26.238 33.8075 26.2387 33.8794C26.2391 33.9154 26.239 33.9416 26.2389 33.9574C26.2388 33.9653 26.2387 33.9706 26.2387 33.9732C26.2386 33.9745 26.2386 33.9752 26.2386 33.9751C26.2386 33.9751 26.2386 33.9749 26.2386 33.9745C26.2386 33.9743 26.2386 33.9739 26.2386 33.9738C26.2387 33.9733 26.2387 33.9728 27.2383 33.9998C28.2379 34.0268 28.238 34.0262 28.238 34.0256C28.238 34.0253 28.238 34.0246 28.238 34.0241C28.238 34.023 28.2381 34.0218 28.2381 34.0203C28.2382 34.0174 28.2382 34.0139 28.2383 34.0096C28.2385 34.001 28.2386 33.9897 28.2388 33.9756C28.239 33.9475 28.2391 33.9085 28.2386 33.8594C28.2377 33.7613 28.2343 33.6225 28.2253 33.4487C28.2071 33.1017 28.1659 32.6131 28.0738 32.0297C27.8904 30.8674 27.501 29.3032 26.6699 27.7277C25.8355 26.1458 24.5524 24.5477 22.5919 23.3496C20.6302 22.1509 18.049 21.3887 14.6752 21.3887L14.6752 23.3887Z" fill="#0060A0"/>
        <path d="M22.9737 10.24C22.9737 14.7849 19.2644 18.4799 14.6755 18.4799C10.0865 18.4799 6.3772 14.7849 6.3772 10.24C6.3772 5.69508 10.0865 2 14.6755 2C19.2644 2 22.9737 5.69508 22.9737 10.24Z" stroke="#0060A0" stroke-width="2" fill-opacity="0"/>
    </symbol>
    <symbol viewBox="0 0 42 36" id="time" fill-opacity="0">
        <path d="M20.6666 9.66675V18.0001L25.3333 22.6667" stroke="#0060A0" stroke-width="2"/>
        <circle cx="21" cy="18" r="14" stroke="#0060A0" stroke-width="2"/>
    </symbol>
</svg>