<svg xmlns="http://www.w3.org/2000/svg" width="42" height="36" fill="none"><g fill="#0060a0"><path d="M7 33.017a1 1 0 102-.035l-2 .035zm25.238-.044a1 1 0 001.999.054l-2-.054zM8 33l1-.016v-.094l.014-.326a11.83 11.83 0 01.141-1.212c.17-1.015.52-2.355 1.234-3.683.7-1.323 1.778-2.63 3.392-3.6s3.83-1.67 6.893-1.67v-2c-3.374 0-5.96.762-7.932 1.96S9.477 25.14 8.628 26.72c-.845 1.574-1.25 3.137-1.444 4.3a13.587 13.587 0 00-.165 1.42L7 32.85V33c0 .017 0 .017 1 0zm12.675-10.61c3.064 0 5.273.69 6.874 1.668s2.655 2.284 3.352 3.605c.7 1.327 1.037 2.666 1.197 3.68a11.82 11.82 0 01.13 1.212l.01.326v.078c0 .016 0 .015 1 .042l1 .026.001-.05v-.116l-.013-.41a13.81 13.81 0 00-.151-1.419c-.183-1.162-.573-2.726-1.404-4.302-.834-1.582-2.117-3.18-4.078-4.378s-4.543-1.96-7.917-1.96v2z"/><path d="M12.445 30.696l-1-.028 1 .028zM14.226 35l-.79.615a1 1 0 001.262.266l-.473-.88zm4.006-7.652l-.514.858.514-.858zm2.67 3.826l.473.88a1 1 0 00.478-1.19l-.95.31zm-5.313 4.23a1 1 0 10-.947-1.762l.947 1.762zm3.95-4.63a1 1 0 10.947 1.762l-.947-1.762zm-8.33-6.158l2.226 2.87 1.58-1.226-2.226-2.87-1.58 1.226zm3.016 2.257l-.765-.644-.028.034-.064.08-.218.285-.655.982c-.46.77-1.017 1.91-1.05 3.062l2 .056c.018-.62.35-1.39.768-2.093l.546-.818.176-.23.046-.057c.01-.013.01-.013-.754-.657zm-2.78 3.798c-.035 1.25.52 2.522 1 3.388.246.453.492.837.677 1.11l.227.322.067.1.02.026c.01.012.01.012.798-.603l.79-.614-.013-.016-.05-.066-.187-.265-.572-.937c-.434-.798-.768-1.68-.75-2.378l-2-.056zm2.78-3.798l.13.992.1-.01.285-.025.962-.026c.805.016 1.577.138 2.025.406l1.027-1.716c-.927-.555-2.158-.672-3.012-.7a12.56 12.56 0 00-1.147.031l-.35.03-.1.01-.03.003c-.013.002-.014.002.116.993zm3.492 1.336c.65.4 1.213 1.152 1.634 1.93a9.77 9.77 0 01.456.967l.112.29.026.074c.006.017.006.017.957-.293l.95-.3-.015-.045-.037-.105-.14-.364c-.122-.3-.306-.715-.55-1.167-.472-.87-1.245-2.022-2.365-2.692l-1.027 1.716zM14.7 35.88l.9-.478-.947-1.762-.9.478.947 1.762zm5.73-5.588l-.9.478.947 1.762.9-.478-.947-1.762zm8.746-6.523l-1.535 2.59 1.72 1.02 1.535-2.59-1.72-1.02z"/></g><g stroke="#0060a0" stroke-width="2"><circle cx="28" cy="28" r="1"/><path d="M28.974 9.24c0 4.545-3.71 8.24-8.298 8.24s-8.298-3.695-8.298-8.24S16.087 1 20.676 1s8.298 3.695 8.298 8.24z"/></g></svg>