<svg xmlns="http://www.w3.org/2000/svg" width="42" height="36" fill="none" stroke="#0060a0" stroke-width="2" xmlns:v="https://vecta.io/nano"><path d="M7.155 31.423s7.678-2.02 12.7-2.02c1.155 0-1.443 2.596.577 2.596 4.003 0 10.103-1.73 10.103-1.73" stroke-linecap="round"/><path d="M17.334 18.213l17.5-14-.19 1.54c-.288 2.005-.788 4.32-1.626 6.068l-5.868 1.15a1 1 0 0 0-.45 1.748l.642-.766-.642.767.001.001.001.001.003.003.008.006.023.018.073.057.254.18c.215.145.523.334.9.522a7.43 7.43 0 0 0 2.984.753l-1.052 1.8c-1.145 1.79-2.78 3.83-4.86 5.18l-.194-.044-1.43-.34-3.25-.942a1 1 0 0 0-1.342 1.096l.987-.16-.987.162v.001.002.005l.002.012.006.034.022.1.09.32a5.21 5.21 0 0 0 .449.998 5.58 5.58 0 0 0 .934 1.196c-.41.082-.91.14-1.505.14-1.26 0-2.963-.26-5.15-1.133a1 1 0 0 0-.58-.049 1 1 0 0 0 .171-.349c.622-2.338 2.03-4.467 4.06-6.09l-.596-.745.596.745z" stroke-linejoin="round"/></svg>