<svg xmlns="http://www.w3.org/2000/svg" width="42" height="36" fill="none" xmlns:v="https://vecta.io/nano"><g stroke="#0060a0" stroke-width="2" stroke-linecap="round"><path d="M35.274 11.96v11.4"/><path d="M40.436 17.66H30.11"/></g><path d="M1 34.017a1 1 0 1 0 2-.035l-2 .035zm25.238-.044a1 1 0 0 0 1.999.054l-2-.054zM2 34l1-.016v-.094l.014-.326a11.83 11.83 0 0 1 .141-1.212c.17-1.015.52-2.355 1.234-3.683.7-1.323 1.778-2.63 3.392-3.6s3.83-1.67 6.893-1.67v-2c-3.374 0-5.96.762-7.932 1.96S3.477 26.14 2.628 27.72c-.845 1.574-1.25 3.137-1.444 4.3-.098.583-.144 1.072-.165 1.42L1 33.85v.116V34c0 .017 0 .017 1 0zm12.675-10.61c3.064 0 5.273.69 6.874 1.668s2.655 2.284 3.352 3.605c.7 1.327 1.037 2.666 1.197 3.68a11.82 11.82 0 0 1 .13 1.212l.01.326v.078c0 .016 0 .015 1 .042l1 .026.001-.05v-.116l-.013-.41a13.81 13.81 0 0 0-.152-1.419c-.183-1.162-.573-2.726-1.404-4.302-.834-1.582-2.117-3.18-4.078-4.378s-4.543-1.96-7.917-1.96v2z" fill="#0060a0"/><path d="M22.974 10.24c0 4.545-3.71 8.24-8.298 8.24s-8.298-3.695-8.298-8.24S10.087 2 14.676 2s8.298 3.695 8.298 8.24z" stroke="#0060a0" stroke-width="2"/></svg>