<svg xmlns="http://www.w3.org/2000/svg" width="135" height="90" fill="none" xmlns:v="https://vecta.io/nano"><style><![CDATA[.B{fill-opacity:.2}]]></style><g fill="#3eb2ff" class="B"><circle cx="130" cy="85" r="5"/><circle cx="105" cy="85" r="5"/><circle cx="80" cy="85" r="5"/><circle cx="55" cy="85" r="5"/><circle cx="30" cy="85" r="5"/><circle cx="5" cy="85" r="5"/><circle cx="130" cy="65" r="5"/><circle cx="105" cy="65" r="5"/><circle cx="80" cy="65" r="5"/><circle cx="55" cy="65" r="5"/><circle cx="30" cy="65" r="5"/><circle cx="5" cy="65" r="5"/><circle cx="130" cy="45" r="5"/><circle cx="105" cy="45" r="5"/><circle cx="80" cy="45" r="5"/><circle cx="55" cy="45" r="5"/><circle cx="30" cy="45" r="5"/><circle cx="5" cy="45" r="5"/><circle cx="130" cy="25" r="5"/><circle cx="105" cy="25" r="5"/><circle cx="80" cy="25" r="5"/><circle cx="55" cy="25" r="5"/><circle cx="30" cy="25" r="5"/><circle cx="5" cy="25" r="5"/><circle cx="130" cy="5" r="5"/><circle cx="105" cy="5" r="5"/><circle cx="80" cy="5" r="5"/><circle cx="55" cy="5" r="5"/><circle cx="30" cy="5" r="5"/><circle cx="5" cy="5" r="5"/></g></svg>